<mxfile host="65bd71144e">
    <diagram id="dVKJ6rkIHex9XGCaOwKX" name="Page-1">
        <mxGraphModel dx="1349" dy="660" grid="1" gridSize="10" guides="1" tooltips="1" connect="1" arrows="1" fold="1" page="1" pageScale="1" pageWidth="827" pageHeight="1169" math="0" shadow="0">
            <root>
                <mxCell id="0"/>
                <mxCell id="1" parent="0"/>
                <mxCell id="10" value="" style="group" vertex="1" connectable="0" parent="1">
                    <mxGeometry x="374" y="290" width="80" height="80" as="geometry"/>
                </mxCell>
                <mxCell id="5" value="" style="ellipse;whiteSpace=wrap;html=1;" vertex="1" parent="10">
                    <mxGeometry width="80" height="80" as="geometry"/>
                </mxCell>
                <mxCell id="9" value="Category" style="text;html=1;strokeColor=none;fillColor=none;align=center;verticalAlign=middle;whiteSpace=wrap;rounded=0;fontStyle=1" vertex="1" parent="10">
                    <mxGeometry x="10" y="25" width="60" height="30" as="geometry"/>
                </mxCell>
                <mxCell id="11" value="" style="group" vertex="1" connectable="0" parent="1">
                    <mxGeometry x="373.5" y="50" width="80" height="80" as="geometry"/>
                </mxCell>
                <mxCell id="3" value="" style="ellipse;whiteSpace=wrap;html=1;" vertex="1" parent="11">
                    <mxGeometry width="80" height="80" as="geometry"/>
                </mxCell>
                <mxCell id="7" value="Folder" style="text;html=1;strokeColor=none;fillColor=none;align=center;verticalAlign=middle;whiteSpace=wrap;rounded=0;fontStyle=1" vertex="1" parent="11">
                    <mxGeometry x="10.5" y="25" width="60" height="30" as="geometry"/>
                </mxCell>
                <mxCell id="12" value="" style="group" vertex="1" connectable="0" parent="1">
                    <mxGeometry x="690" y="50" width="80" height="80" as="geometry"/>
                </mxCell>
                <mxCell id="4" value="" style="ellipse;whiteSpace=wrap;html=1;" vertex="1" parent="12">
                    <mxGeometry width="80" height="80" as="geometry"/>
                </mxCell>
                <mxCell id="8" value="Note" style="text;html=1;strokeColor=none;fillColor=none;align=center;verticalAlign=middle;whiteSpace=wrap;rounded=0;fontStyle=1" vertex="1" parent="12">
                    <mxGeometry x="10" y="25" width="60" height="30" as="geometry"/>
                </mxCell>
                <mxCell id="14" value="" style="group" vertex="1" connectable="0" parent="1">
                    <mxGeometry x="50" y="50" width="80" height="80" as="geometry"/>
                </mxCell>
                <mxCell id="2" value="" style="ellipse;whiteSpace=wrap;html=1;" vertex="1" parent="14">
                    <mxGeometry width="80" height="80" as="geometry"/>
                </mxCell>
                <mxCell id="6" value="Author" style="text;html=1;strokeColor=none;fillColor=none;align=center;verticalAlign=middle;whiteSpace=wrap;rounded=0;fontStyle=1" vertex="1" parent="14">
                    <mxGeometry x="10" y="25" width="60" height="30" as="geometry"/>
                </mxCell>
                <mxCell id="17" value="" style="shape=flexArrow;endArrow=classic;startArrow=classic;html=1;exitX=0.95;exitY=0.625;exitDx=0;exitDy=0;exitPerimeter=0;" edge="1" parent="1" source="5" target="4">
                    <mxGeometry width="100" height="100" relative="1" as="geometry">
                        <mxPoint x="520" y="280" as="sourcePoint"/>
                        <mxPoint x="620" y="180" as="targetPoint"/>
                        <Array as="points"/>
                    </mxGeometry>
                </mxCell>
                <mxCell id="18" value="" style="shape=flexArrow;endArrow=classic;html=1;exitX=0;exitY=0.5;exitDx=0;exitDy=0;entryX=1;entryY=0.5;entryDx=0;entryDy=0;" edge="1" parent="1" source="4" target="3">
                    <mxGeometry width="50" height="50" relative="1" as="geometry">
                        <mxPoint x="680" y="90" as="sourcePoint"/>
                        <mxPoint x="610" y="90" as="targetPoint"/>
                    </mxGeometry>
                </mxCell>
                <mxCell id="20" value="" style="shape=flexArrow;endArrow=classic;html=1;exitX=0;exitY=0.5;exitDx=0;exitDy=0;entryX=1;entryY=0.5;entryDx=0;entryDy=0;" edge="1" parent="1" source="3" target="2">
                    <mxGeometry width="50" height="50" relative="1" as="geometry">
                        <mxPoint x="340" y="89.58" as="sourcePoint"/>
                        <mxPoint x="270" y="89.58" as="targetPoint"/>
                    </mxGeometry>
                </mxCell>
                <mxCell id="21" value="" style="shape=flexArrow;endArrow=classic;html=1;entryX=0.004;entryY=0.573;entryDx=0;entryDy=0;entryPerimeter=0;exitX=0.658;exitY=1.021;exitDx=0;exitDy=0;exitPerimeter=0;" edge="1" parent="1" source="2" target="5">
                    <mxGeometry width="50" height="50" relative="1" as="geometry">
                        <mxPoint x="90" y="130" as="sourcePoint"/>
                        <mxPoint x="150" y="180" as="targetPoint"/>
                    </mxGeometry>
                </mxCell>
            </root>
        </mxGraphModel>
    </diagram>
</mxfile>